<svg width="77" height="33" viewBox="0 0 77 33" fill="none" xmlns="http://www.w3.org/2000/svg">
<g filter="url(#filter0_d_19_119)">
<path d="M4.99994 24V1H60.0888L71.9999 13.4511V24H4.99994Z" fill="#D600E1"/>
<path d="M4.99994 24V1H60.0888L71.9999 13.4511V24H4.99994Z" stroke="black"/>
<path d="M4.99994 24V1H60.0888L71.9999 13.4511V24H4.99994Z" stroke="black" stroke-opacity="0.2"/>
<path d="M4.99994 24V1H60.0888L71.9999 13.4511V24H4.99994Z" stroke="black" stroke-opacity="0.2"/>
<path d="M4.99994 24V1H60.0888L71.9999 13.4511V24H4.99994Z" stroke="black" stroke-opacity="0.2"/>
<path d="M4.99994 24V1H60.0888L71.9999 13.4511V24H4.99994Z" stroke="black" stroke-opacity="0.2"/>
<path d="M4.99994 24V1H60.0888L71.9999 13.4511V24H4.99994Z" stroke="black" stroke-opacity="0.2"/>
</g>
<defs>
<filter id="filter0_d_19_119" x="0.499939" y="0.5" width="76" height="32" filterUnits="userSpaceOnUse" color-interpolation-filters="sRGB">
<feFlood flood-opacity="0" result="BackgroundImageFix"/>
<feColorMatrix in="SourceAlpha" type="matrix" values="0 0 0 0 0 0 0 0 0 0 0 0 0 0 0 0 0 0 127 0" result="hardAlpha"/>
<feOffset dy="4"/>
<feGaussianBlur stdDeviation="2"/>
<feComposite in2="hardAlpha" operator="out"/>
<feColorMatrix type="matrix" values="0 0 0 0 0 0 0 0 0 0 0 0 0 0 0 0 0 0 0.25 0"/>
<feBlend mode="normal" in2="BackgroundImageFix" result="effect1_dropShadow_19_119"/>
<feBlend mode="normal" in="SourceGraphic" in2="effect1_dropShadow_19_119" result="shape"/>
</filter>
</defs>
</svg>
